<svg width="168" height="168" viewBox="0 0 168 168" fill="none" xmlns="http://www.w3.org/2000/svg">
<path d="M84 14C122.661 14 154 45.339 154 84C154 122.661 122.661 154 84 154C45.339 154 14 122.661 14 84C14 45.339 45.339 14 84 14ZM84 42C82.1435 42 80.363 42.7375 79.0503 44.0503C77.7375 45.363 77 47.1435 77 49V84C77.0004 85.8564 77.7382 87.6365 79.051 88.949L100.051 109.949C101.371 111.224 103.139 111.93 104.975 111.914C106.81 111.898 108.566 111.162 109.864 109.864C111.162 108.566 111.898 106.81 111.914 104.975C111.93 103.139 111.224 101.371 109.949 100.051L91 81.102V49C91 47.1435 90.2625 45.363 88.9497 44.0503C87.637 42.7375 85.8565 42 84 42Z" fill="white"/>
</svg>
