<svg width="70" height="70" viewBox="0 0 70 70" fill="none" xmlns="http://www.w3.org/2000/svg">
<g clip-path="url(#clip0_475_9)">
<path d="M31.5058 65.625H15.1608L12.8625 55.2883C9.0125 53.5792 4.21167 50.6129 0.860417 47.2792L0 46.4217V24.7946H5.64083L8.42042 20.1571L4.78042 11.0571L8.08792 10.2842C11.3371 9.53168 15.5837 9.72126 19.7371 12.0108L19.7954 11.9788C20.4805 11.5698 21.1728 11.173 21.8721 10.7888C23.2929 9.98712 24.7574 9.26558 26.2587 8.62751C27.5917 8.08793 28.8604 7.63585 30.0912 7.26251C28.4635 11.9871 28.7669 17.1633 30.9355 21.6653C33.1041 26.1674 36.9625 29.6311 41.6716 31.3033C46.3806 32.9755 51.5594 32.7209 56.0817 30.5948C60.604 28.4687 64.1039 24.6431 65.8204 19.95L66.0917 20.4167C73.2812 32.865 70.2479 48.405 59.5992 57.3329L57.7558 65.6279H41.4108L40.1129 59.7946H32.8037L31.5058 65.625ZM13.125 33.5417H18.97V27.6967H13.125V33.5417Z" fill="white"/>
<path d="M48.125 0C51.606 0 54.9444 1.38281 57.4058 3.84422C59.8672 6.30564 61.25 9.64403 61.25 13.125C61.25 16.606 59.8672 19.9444 57.4058 22.4058C54.9444 24.8672 51.606 26.25 48.125 26.25C44.644 26.25 41.3056 24.8672 38.8442 22.4058C36.3828 19.9444 35 16.606 35 13.125C35 9.64403 36.3828 6.30564 38.8442 3.84422C41.3056 1.38281 44.644 0 48.125 0Z" fill="white"/>
</g>
<defs>
<clipPath id="clip0_475_9">
<rect width="70" height="70" fill="white"/>
</clipPath>
</defs>
</svg>
