<svg width="168" height="168" viewBox="0 0 168 168" fill="none" xmlns="http://www.w3.org/2000/svg">
<path fill-rule="evenodd" clip-rule="evenodd" d="M84.1361 21C68.3266 21 53.9241 26.222 45.4016 30.4885C44.6316 30.8735 43.9129 31.2492 43.2456 31.6155C41.9226 32.3365 40.7956 33.0085 39.8996 33.6L49.5946 47.873L54.1586 49.6895C71.9946 58.688 95.9136 58.688 113.753 49.6895L118.933 47.0015L128.1 33.6C126.199 32.3649 124.225 31.2463 122.188 30.2505C113.708 26.0295 99.6481 21 84.1396 21M61.5926 37.156C58.1603 36.5101 54.7697 35.6592 51.4391 34.608C59.4226 31.0625 71.3191 27.3 84.1396 27.3C93.0191 27.3 101.416 29.106 108.36 31.395C100.222 32.5395 91.5386 34.482 83.2646 36.8725C76.7546 38.7555 69.1456 38.5525 61.5926 37.156ZM117.453 54.88L116.592 55.314C96.9706 65.212 70.9446 65.212 51.3236 55.314L50.5081 54.901C21.0276 87.2445 -1.47743 146.99 84.1361 146.99C169.75 146.99 146.699 86.135 117.453 54.88ZM80.4996 84C78.6431 84 76.8626 84.7375 75.5498 86.0503C74.2371 87.363 73.4996 89.1435 73.4996 91C73.4996 92.8565 74.2371 94.637 75.5498 95.9497C76.8626 97.2625 78.6431 98 80.4996 98V84ZM87.4996 77V73.5H80.4996V77C76.7865 77 73.2256 78.475 70.6001 81.1005C67.9746 83.726 66.4996 87.287 66.4996 91C66.4996 94.713 67.9746 98.274 70.6001 100.899C73.2256 103.525 76.7865 105 80.4996 105V119C77.4546 119 74.8611 117.057 73.8951 114.334C73.7518 113.889 73.5205 113.477 73.2151 113.122C72.9097 112.768 72.5363 112.478 72.1169 112.27C71.6976 112.062 71.2408 111.941 70.7737 111.913C70.3066 111.885 69.8385 111.95 69.3973 112.106C68.956 112.262 68.5505 112.505 68.2047 112.82C67.859 113.136 67.58 113.517 67.3842 113.942C67.1884 114.367 67.0799 114.827 67.065 115.295C67.0501 115.763 67.1292 116.229 67.2976 116.666C68.2626 119.396 70.0504 121.759 72.4148 123.431C74.7792 125.103 77.6039 126 80.4996 126V129.5H87.4996V126C91.2126 126 94.7736 124.525 97.3991 121.899C100.025 119.274 101.5 115.713 101.5 112C101.5 108.287 100.025 104.726 97.3991 102.101C94.7736 99.475 91.2126 98 87.4996 98V84C90.5446 84 93.1381 85.9425 94.1041 88.6655C94.2474 89.111 94.4786 89.5232 94.784 89.8778C95.0894 90.2324 95.4629 90.5221 95.8822 90.7299C96.3016 90.9376 96.7583 91.0591 97.2254 91.0873C97.6926 91.1154 98.1606 91.0496 98.6019 90.8937C99.0431 90.7378 99.4486 90.495 99.7944 90.1796C100.14 89.8643 100.419 89.4828 100.615 89.0577C100.811 88.6326 100.919 88.1726 100.934 87.7049C100.949 87.2371 100.87 86.7712 100.702 86.3345C99.7366 83.6043 97.9487 81.2405 95.5843 79.5688C93.2199 77.897 90.3953 76.9995 87.4996 77ZM87.4996 105V119C89.3561 119 91.1366 118.263 92.4493 116.95C93.7621 115.637 94.4996 113.857 94.4996 112C94.4996 110.143 93.7621 108.363 92.4493 107.05C91.1366 105.737 89.3561 105 87.4996 105Z" fill="white"/>
</svg>
