<svg width="168" height="168" viewBox="0 0 168 168" fill="none" xmlns="http://www.w3.org/2000/svg">
<path d="M94.5 112C94.5 114.785 93.3938 117.455 91.4246 119.425C89.4555 121.394 86.7848 122.5 84 122.5C81.2152 122.5 78.5445 121.394 76.5754 119.425C74.6062 117.455 73.5 114.785 73.5 112C73.5 109.215 74.6062 106.545 76.5754 104.575C78.5445 102.606 81.2152 101.5 84 101.5C86.7848 101.5 89.4555 102.606 91.4246 104.575C93.3938 106.545 94.5 109.215 94.5 112Z" fill="white"/>
<path d="M100.429 4.62L122.689 35.812L137.368 30.807L150.766 70H157.5V154H10.5V70H14.07V69.93L18.606 69.972L100.429 4.62ZM65.779 70H135.975L128.716 48.769L118.062 52.178L65.779 70ZM54.873 58.919L108.85 40.53L97.622 24.78L54.873 58.919ZM38.5 84H24.5V98C28.213 98 31.774 96.525 34.3995 93.8995C37.025 91.274 38.5 87.713 38.5 84ZM108.5 112C108.5 108.783 107.866 105.597 106.635 102.624C105.404 99.6518 103.599 96.9509 101.324 94.6759C99.0491 92.4008 96.3482 90.5962 93.3757 89.3649C90.4033 88.1337 87.2174 87.5 84 87.5C80.7826 87.5 77.5967 88.1337 74.6243 89.3649C71.6518 90.5962 68.9509 92.4008 66.6759 94.6759C64.4008 96.9509 62.5962 99.6518 61.3649 102.624C60.1337 105.597 59.5 108.783 59.5 112C59.5 118.498 62.0812 124.729 66.6759 129.324C71.2705 133.919 77.5022 136.5 84 136.5C90.4978 136.5 96.7295 133.919 101.324 129.324C105.919 124.729 108.5 118.498 108.5 112ZM143.5 140V126C139.787 126 136.226 127.475 133.601 130.101C130.975 132.726 129.5 136.287 129.5 140H143.5ZM129.5 84C129.5 87.713 130.975 91.274 133.601 93.8995C136.226 96.525 139.787 98 143.5 98V84H129.5ZM24.5 140H38.5C38.5 136.287 37.025 132.726 34.3995 130.101C31.774 127.475 28.213 126 24.5 126V140Z" fill="white"/>
</svg>
